<mxfile host="app.diagrams.net" modified="2022-09-14T16:16:35.676Z" agent="5.0 (Windows NT 10.0; Win64; x64) AppleWebKit/537.36 (KHTML, like Gecko) Chrome/104.0.5112.81 Safari/537.36 Edg/104.0.1293.47" etag="LKzmMjnRLPxt3LN_Rvoy" version="20.3.0" type="github">
  <diagram id="GJMogfL8HzC4R71LF7hJ" name="Page-1">
    <mxGraphModel dx="2241" dy="784" grid="1" gridSize="10" guides="1" tooltips="1" connect="1" arrows="1" fold="1" page="1" pageScale="1" pageWidth="850" pageHeight="1100" math="0" shadow="0">
      <root>
        <mxCell id="0" />
        <mxCell id="1" parent="0" />
        <mxCell id="g06EQanjJOQpkNwreYOE-1" value="Elevator Pitch" style="rounded=1;whiteSpace=wrap;html=1;" vertex="1" parent="1">
          <mxGeometry x="330" y="30" width="120" height="60" as="geometry" />
        </mxCell>
        <mxCell id="g06EQanjJOQpkNwreYOE-2" value="Job" style="rounded=1;whiteSpace=wrap;html=1;" vertex="1" parent="1">
          <mxGeometry x="360" y="480" width="120" height="60" as="geometry" />
        </mxCell>
        <mxCell id="g06EQanjJOQpkNwreYOE-4" value="Career Growth" style="rounded=1;whiteSpace=wrap;html=1;" vertex="1" parent="1">
          <mxGeometry x="840" y="480" width="120" height="60" as="geometry" />
        </mxCell>
        <mxCell id="g06EQanjJOQpkNwreYOE-5" value="Business" style="rounded=1;whiteSpace=wrap;html=1;" vertex="1" parent="1">
          <mxGeometry x="440" y="730" width="120" height="60" as="geometry" />
        </mxCell>
        <mxCell id="g06EQanjJOQpkNwreYOE-6" value="Network" style="rounded=1;whiteSpace=wrap;html=1;" vertex="1" parent="1">
          <mxGeometry x="670" y="520" width="120" height="60" as="geometry" />
        </mxCell>
        <mxCell id="g06EQanjJOQpkNwreYOE-7" value="Client" style="rounded=1;whiteSpace=wrap;html=1;" vertex="1" parent="1">
          <mxGeometry x="480" y="580" width="120" height="60" as="geometry" />
        </mxCell>
        <mxCell id="g06EQanjJOQpkNwreYOE-8" value="Communication Skills" style="rounded=1;whiteSpace=wrap;html=1;" vertex="1" parent="1">
          <mxGeometry x="60" y="160" width="120" height="60" as="geometry" />
        </mxCell>
        <mxCell id="g06EQanjJOQpkNwreYOE-9" value="Skills" style="rounded=1;whiteSpace=wrap;html=1;" vertex="1" parent="1">
          <mxGeometry x="30" y="285" width="120" height="60" as="geometry" />
        </mxCell>
        <mxCell id="g06EQanjJOQpkNwreYOE-10" value="Goals" style="rounded=1;whiteSpace=wrap;html=1;" vertex="1" parent="1">
          <mxGeometry x="680" y="345" width="120" height="60" as="geometry" />
        </mxCell>
        <mxCell id="g06EQanjJOQpkNwreYOE-12" value="Yourself" style="rounded=1;whiteSpace=wrap;html=1;" vertex="1" parent="1">
          <mxGeometry x="330" y="160" width="120" height="60" as="geometry" />
        </mxCell>
        <mxCell id="g06EQanjJOQpkNwreYOE-14" value="Experience" style="rounded=1;whiteSpace=wrap;html=1;" vertex="1" parent="1">
          <mxGeometry x="330" y="360" width="120" height="60" as="geometry" />
        </mxCell>
        <mxCell id="g06EQanjJOQpkNwreYOE-16" value="Background" style="rounded=1;whiteSpace=wrap;html=1;" vertex="1" parent="1">
          <mxGeometry x="180" y="345" width="120" height="60" as="geometry" />
        </mxCell>
        <mxCell id="g06EQanjJOQpkNwreYOE-17" value="Contact Infos" style="rounded=1;whiteSpace=wrap;html=1;" vertex="1" parent="1">
          <mxGeometry x="680" y="160" width="120" height="60" as="geometry" />
        </mxCell>
        <mxCell id="g06EQanjJOQpkNwreYOE-18" value="Business Card" style="rounded=1;whiteSpace=wrap;html=1;" vertex="1" parent="1">
          <mxGeometry x="950" y="245" width="120" height="60" as="geometry" />
        </mxCell>
        <mxCell id="g06EQanjJOQpkNwreYOE-19" value="Resume" style="rounded=1;whiteSpace=wrap;html=1;" vertex="1" parent="1">
          <mxGeometry x="950" y="70" width="120" height="60" as="geometry" />
        </mxCell>
        <mxCell id="g06EQanjJOQpkNwreYOE-20" value="Contact Number" style="rounded=1;whiteSpace=wrap;html=1;" vertex="1" parent="1">
          <mxGeometry x="950" y="160" width="120" height="60" as="geometry" />
        </mxCell>
        <mxCell id="g06EQanjJOQpkNwreYOE-21" value="Eye Contact" style="rounded=1;whiteSpace=wrap;html=1;" vertex="1" parent="1">
          <mxGeometry x="-160" y="220" width="120" height="60" as="geometry" />
        </mxCell>
        <mxCell id="g06EQanjJOQpkNwreYOE-22" value="High Energy" style="rounded=1;whiteSpace=wrap;html=1;" vertex="1" parent="1">
          <mxGeometry x="-140" y="90" width="120" height="60" as="geometry" />
        </mxCell>
        <mxCell id="g06EQanjJOQpkNwreYOE-23" value="Time" style="rounded=1;whiteSpace=wrap;html=1;" vertex="1" parent="1">
          <mxGeometry x="540" y="70" width="120" height="60" as="geometry" />
        </mxCell>
        <mxCell id="g06EQanjJOQpkNwreYOE-24" value="" style="endArrow=classic;html=1;rounded=0;exitX=0.5;exitY=1;exitDx=0;exitDy=0;entryX=0.5;entryY=0;entryDx=0;entryDy=0;" edge="1" parent="1" source="g06EQanjJOQpkNwreYOE-1" target="g06EQanjJOQpkNwreYOE-12">
          <mxGeometry relative="1" as="geometry">
            <mxPoint x="360" y="280" as="sourcePoint" />
            <mxPoint x="460" y="280" as="targetPoint" />
          </mxGeometry>
        </mxCell>
        <mxCell id="g06EQanjJOQpkNwreYOE-25" value="created by" style="edgeLabel;resizable=0;html=1;align=center;verticalAlign=middle;" connectable="0" vertex="1" parent="g06EQanjJOQpkNwreYOE-24">
          <mxGeometry relative="1" as="geometry">
            <mxPoint x="1" as="offset" />
          </mxGeometry>
        </mxCell>
        <mxCell id="g06EQanjJOQpkNwreYOE-26" value="tells about" style="text;html=1;strokeColor=none;fillColor=none;align=center;verticalAlign=middle;whiteSpace=wrap;rounded=0;" vertex="1" parent="1">
          <mxGeometry x="360" y="265" width="60" height="30" as="geometry" />
        </mxCell>
        <mxCell id="g06EQanjJOQpkNwreYOE-28" value="" style="endArrow=none;html=1;rounded=0;entryX=0.5;entryY=1;entryDx=0;entryDy=0;exitX=0.5;exitY=0;exitDx=0;exitDy=0;" edge="1" parent="1" source="g06EQanjJOQpkNwreYOE-26" target="g06EQanjJOQpkNwreYOE-12">
          <mxGeometry width="50" height="50" relative="1" as="geometry">
            <mxPoint x="350" y="270" as="sourcePoint" />
            <mxPoint x="400" y="220" as="targetPoint" />
          </mxGeometry>
        </mxCell>
        <mxCell id="g06EQanjJOQpkNwreYOE-29" value="" style="endArrow=none;html=1;rounded=0;entryX=0.5;entryY=1;entryDx=0;entryDy=0;" edge="1" parent="1" target="g06EQanjJOQpkNwreYOE-26">
          <mxGeometry width="50" height="50" relative="1" as="geometry">
            <mxPoint x="390" y="360" as="sourcePoint" />
            <mxPoint x="360" y="290" as="targetPoint" />
          </mxGeometry>
        </mxCell>
        <mxCell id="g06EQanjJOQpkNwreYOE-30" value="" style="endArrow=none;html=1;rounded=0;entryX=0;entryY=0.5;entryDx=0;entryDy=0;exitX=1;exitY=0.5;exitDx=0;exitDy=0;" edge="1" parent="1" source="g06EQanjJOQpkNwreYOE-9" target="g06EQanjJOQpkNwreYOE-26">
          <mxGeometry width="50" height="50" relative="1" as="geometry">
            <mxPoint x="310" y="330" as="sourcePoint" />
            <mxPoint x="370" y="300" as="targetPoint" />
          </mxGeometry>
        </mxCell>
        <mxCell id="g06EQanjJOQpkNwreYOE-31" value="" style="endArrow=none;html=1;rounded=0;entryX=0;entryY=0.75;entryDx=0;entryDy=0;exitX=1;exitY=0;exitDx=0;exitDy=0;" edge="1" parent="1" source="g06EQanjJOQpkNwreYOE-16" target="g06EQanjJOQpkNwreYOE-26">
          <mxGeometry width="50" height="50" relative="1" as="geometry">
            <mxPoint x="280" y="340" as="sourcePoint" />
            <mxPoint x="370" y="300" as="targetPoint" />
          </mxGeometry>
        </mxCell>
        <mxCell id="g06EQanjJOQpkNwreYOE-32" value="" style="endArrow=none;html=1;rounded=0;exitX=0;exitY=0;exitDx=0;exitDy=0;entryX=1;entryY=0.5;entryDx=0;entryDy=0;" edge="1" parent="1" source="g06EQanjJOQpkNwreYOE-10" target="g06EQanjJOQpkNwreYOE-26">
          <mxGeometry width="50" height="50" relative="1" as="geometry">
            <mxPoint x="390" y="340" as="sourcePoint" />
            <mxPoint x="470" y="280" as="targetPoint" />
          </mxGeometry>
        </mxCell>
        <mxCell id="g06EQanjJOQpkNwreYOE-33" value="finding" style="text;html=1;strokeColor=none;fillColor=none;align=center;verticalAlign=middle;whiteSpace=wrap;rounded=0;" vertex="1" parent="1">
          <mxGeometry x="540" y="470" width="60" height="30" as="geometry" />
        </mxCell>
        <mxCell id="g06EQanjJOQpkNwreYOE-34" value="" style="endArrow=none;html=1;rounded=0;exitX=1;exitY=0;exitDx=0;exitDy=0;entryX=0;entryY=1;entryDx=0;entryDy=0;" edge="1" parent="1" source="g06EQanjJOQpkNwreYOE-33" target="g06EQanjJOQpkNwreYOE-10">
          <mxGeometry width="50" height="50" relative="1" as="geometry">
            <mxPoint x="290" y="460" as="sourcePoint" />
            <mxPoint x="340" y="410" as="targetPoint" />
          </mxGeometry>
        </mxCell>
        <mxCell id="g06EQanjJOQpkNwreYOE-35" value="" style="endArrow=none;html=1;rounded=0;exitX=1;exitY=0.5;exitDx=0;exitDy=0;entryX=0;entryY=0.5;entryDx=0;entryDy=0;" edge="1" parent="1" source="g06EQanjJOQpkNwreYOE-2" target="g06EQanjJOQpkNwreYOE-33">
          <mxGeometry width="50" height="50" relative="1" as="geometry">
            <mxPoint x="160" y="530" as="sourcePoint" />
            <mxPoint x="220" y="485" as="targetPoint" />
          </mxGeometry>
        </mxCell>
        <mxCell id="g06EQanjJOQpkNwreYOE-36" value="" style="endArrow=none;html=1;rounded=0;exitX=0.5;exitY=0;exitDx=0;exitDy=0;entryX=0.25;entryY=1;entryDx=0;entryDy=0;" edge="1" parent="1" source="g06EQanjJOQpkNwreYOE-7" target="g06EQanjJOQpkNwreYOE-33">
          <mxGeometry width="50" height="50" relative="1" as="geometry">
            <mxPoint x="140" y="555" as="sourcePoint" />
            <mxPoint x="230" y="550" as="targetPoint" />
          </mxGeometry>
        </mxCell>
        <mxCell id="g06EQanjJOQpkNwreYOE-38" value="" style="endArrow=classic;html=1;rounded=0;exitX=0.5;exitY=1;exitDx=0;exitDy=0;entryX=0.5;entryY=0;entryDx=0;entryDy=0;" edge="1" parent="1" source="g06EQanjJOQpkNwreYOE-7" target="g06EQanjJOQpkNwreYOE-5">
          <mxGeometry relative="1" as="geometry">
            <mxPoint x="330" y="520" as="sourcePoint" />
            <mxPoint x="490" y="520" as="targetPoint" />
          </mxGeometry>
        </mxCell>
        <mxCell id="g06EQanjJOQpkNwreYOE-39" value="for" style="edgeLabel;resizable=0;html=1;align=center;verticalAlign=middle;" connectable="0" vertex="1" parent="g06EQanjJOQpkNwreYOE-38">
          <mxGeometry relative="1" as="geometry" />
        </mxCell>
        <mxCell id="g06EQanjJOQpkNwreYOE-41" value="" style="endArrow=classic;html=1;rounded=0;exitX=0.5;exitY=1;exitDx=0;exitDy=0;entryX=0.5;entryY=0;entryDx=0;entryDy=0;" edge="1" parent="1" source="g06EQanjJOQpkNwreYOE-10" target="g06EQanjJOQpkNwreYOE-6">
          <mxGeometry relative="1" as="geometry">
            <mxPoint x="330" y="520" as="sourcePoint" />
            <mxPoint x="390" y="530" as="targetPoint" />
          </mxGeometry>
        </mxCell>
        <mxCell id="g06EQanjJOQpkNwreYOE-42" value="expanding of" style="edgeLabel;resizable=0;html=1;align=center;verticalAlign=middle;" connectable="0" vertex="1" parent="g06EQanjJOQpkNwreYOE-41">
          <mxGeometry relative="1" as="geometry" />
        </mxCell>
        <mxCell id="g06EQanjJOQpkNwreYOE-44" value="" style="endArrow=classic;html=1;rounded=0;entryX=0;entryY=0;entryDx=0;entryDy=0;exitX=1;exitY=1;exitDx=0;exitDy=0;" edge="1" parent="1" source="g06EQanjJOQpkNwreYOE-10" target="g06EQanjJOQpkNwreYOE-4">
          <mxGeometry relative="1" as="geometry">
            <mxPoint x="330" y="400" as="sourcePoint" />
            <mxPoint x="490" y="400" as="targetPoint" />
          </mxGeometry>
        </mxCell>
        <mxCell id="g06EQanjJOQpkNwreYOE-45" value="for" style="edgeLabel;resizable=0;html=1;align=center;verticalAlign=middle;" connectable="0" vertex="1" parent="g06EQanjJOQpkNwreYOE-44">
          <mxGeometry relative="1" as="geometry" />
        </mxCell>
        <mxCell id="g06EQanjJOQpkNwreYOE-47" value="" style="endArrow=classic;html=1;rounded=0;entryX=0;entryY=0.5;entryDx=0;entryDy=0;exitX=1;exitY=0;exitDx=0;exitDy=0;" edge="1" parent="1" source="g06EQanjJOQpkNwreYOE-12" target="g06EQanjJOQpkNwreYOE-23">
          <mxGeometry relative="1" as="geometry">
            <mxPoint x="360" y="280" as="sourcePoint" />
            <mxPoint x="460" y="280" as="targetPoint" />
          </mxGeometry>
        </mxCell>
        <mxCell id="g06EQanjJOQpkNwreYOE-48" value="manage" style="edgeLabel;resizable=0;html=1;align=center;verticalAlign=middle;" connectable="0" vertex="1" parent="g06EQanjJOQpkNwreYOE-47">
          <mxGeometry relative="1" as="geometry" />
        </mxCell>
        <mxCell id="g06EQanjJOQpkNwreYOE-49" value="" style="endArrow=classic;html=1;rounded=0;exitX=1;exitY=0.5;exitDx=0;exitDy=0;" edge="1" parent="1" source="g06EQanjJOQpkNwreYOE-12">
          <mxGeometry relative="1" as="geometry">
            <mxPoint x="360" y="280" as="sourcePoint" />
            <mxPoint x="680" y="190" as="targetPoint" />
          </mxGeometry>
        </mxCell>
        <mxCell id="g06EQanjJOQpkNwreYOE-50" value="prepare" style="edgeLabel;resizable=0;html=1;align=center;verticalAlign=middle;" connectable="0" vertex="1" parent="g06EQanjJOQpkNwreYOE-49">
          <mxGeometry relative="1" as="geometry">
            <mxPoint as="offset" />
          </mxGeometry>
        </mxCell>
        <mxCell id="g06EQanjJOQpkNwreYOE-51" value="" style="endArrow=none;html=1;rounded=0;exitX=1;exitY=0.5;exitDx=0;exitDy=0;entryX=0;entryY=0.5;entryDx=0;entryDy=0;" edge="1" parent="1" source="g06EQanjJOQpkNwreYOE-17" target="g06EQanjJOQpkNwreYOE-52">
          <mxGeometry width="50" height="50" relative="1" as="geometry">
            <mxPoint x="700" y="310" as="sourcePoint" />
            <mxPoint x="830" y="190" as="targetPoint" />
          </mxGeometry>
        </mxCell>
        <mxCell id="g06EQanjJOQpkNwreYOE-52" value="such as" style="text;html=1;strokeColor=none;fillColor=none;align=center;verticalAlign=middle;whiteSpace=wrap;rounded=0;" vertex="1" parent="1">
          <mxGeometry x="830" y="175" width="60" height="30" as="geometry" />
        </mxCell>
        <mxCell id="g06EQanjJOQpkNwreYOE-53" value="" style="endArrow=none;html=1;rounded=0;entryX=1;entryY=0;entryDx=0;entryDy=0;exitX=0;exitY=1;exitDx=0;exitDy=0;" edge="1" parent="1" source="g06EQanjJOQpkNwreYOE-19" target="g06EQanjJOQpkNwreYOE-52">
          <mxGeometry width="50" height="50" relative="1" as="geometry">
            <mxPoint x="700" y="310" as="sourcePoint" />
            <mxPoint x="750" y="260" as="targetPoint" />
          </mxGeometry>
        </mxCell>
        <mxCell id="g06EQanjJOQpkNwreYOE-54" value="" style="endArrow=none;html=1;rounded=0;entryX=0;entryY=0.5;entryDx=0;entryDy=0;exitX=1;exitY=0.5;exitDx=0;exitDy=0;" edge="1" parent="1" source="g06EQanjJOQpkNwreYOE-52" target="g06EQanjJOQpkNwreYOE-20">
          <mxGeometry width="50" height="50" relative="1" as="geometry">
            <mxPoint x="700" y="310" as="sourcePoint" />
            <mxPoint x="750" y="260" as="targetPoint" />
          </mxGeometry>
        </mxCell>
        <mxCell id="g06EQanjJOQpkNwreYOE-55" value="" style="endArrow=none;html=1;rounded=0;entryX=0;entryY=0.5;entryDx=0;entryDy=0;exitX=1;exitY=0.75;exitDx=0;exitDy=0;" edge="1" parent="1" source="g06EQanjJOQpkNwreYOE-52" target="g06EQanjJOQpkNwreYOE-18">
          <mxGeometry width="50" height="50" relative="1" as="geometry">
            <mxPoint x="700" y="310" as="sourcePoint" />
            <mxPoint x="750" y="260" as="targetPoint" />
          </mxGeometry>
        </mxCell>
        <mxCell id="g06EQanjJOQpkNwreYOE-56" value="" style="endArrow=classic;html=1;rounded=0;exitX=0.5;exitY=1;exitDx=0;exitDy=0;entryX=0.5;entryY=0;entryDx=0;entryDy=0;" edge="1" parent="1" source="g06EQanjJOQpkNwreYOE-17" target="g06EQanjJOQpkNwreYOE-10">
          <mxGeometry relative="1" as="geometry">
            <mxPoint x="680" y="280" as="sourcePoint" />
            <mxPoint x="780" y="280" as="targetPoint" />
          </mxGeometry>
        </mxCell>
        <mxCell id="g06EQanjJOQpkNwreYOE-57" value="needed to show for" style="edgeLabel;resizable=0;html=1;align=center;verticalAlign=middle;" connectable="0" vertex="1" parent="g06EQanjJOQpkNwreYOE-56">
          <mxGeometry relative="1" as="geometry" />
        </mxCell>
        <mxCell id="g06EQanjJOQpkNwreYOE-62" value="" style="endArrow=classic;html=1;rounded=0;entryX=1;entryY=0.5;entryDx=0;entryDy=0;exitX=0;exitY=0.5;exitDx=0;exitDy=0;" edge="1" parent="1" source="g06EQanjJOQpkNwreYOE-12" target="g06EQanjJOQpkNwreYOE-8">
          <mxGeometry relative="1" as="geometry">
            <mxPoint x="270" y="160" as="sourcePoint" />
            <mxPoint x="370" y="160" as="targetPoint" />
          </mxGeometry>
        </mxCell>
        <mxCell id="g06EQanjJOQpkNwreYOE-63" value="practive" style="edgeLabel;resizable=0;html=1;align=center;verticalAlign=middle;" connectable="0" vertex="1" parent="g06EQanjJOQpkNwreYOE-62">
          <mxGeometry relative="1" as="geometry" />
        </mxCell>
        <mxCell id="g06EQanjJOQpkNwreYOE-64" value="" style="endArrow=classic;html=1;rounded=0;exitX=-0.033;exitY=0.867;exitDx=0;exitDy=0;exitPerimeter=0;entryX=1;entryY=0.25;entryDx=0;entryDy=0;" edge="1" parent="1" source="g06EQanjJOQpkNwreYOE-8" target="g06EQanjJOQpkNwreYOE-21">
          <mxGeometry relative="1" as="geometry">
            <mxPoint x="270" y="160" as="sourcePoint" />
            <mxPoint x="370" y="160" as="targetPoint" />
          </mxGeometry>
        </mxCell>
        <mxCell id="g06EQanjJOQpkNwreYOE-65" value="maintain" style="edgeLabel;resizable=0;html=1;align=center;verticalAlign=middle;" connectable="0" vertex="1" parent="g06EQanjJOQpkNwreYOE-64">
          <mxGeometry relative="1" as="geometry" />
        </mxCell>
        <mxCell id="g06EQanjJOQpkNwreYOE-66" value="" style="endArrow=classic;html=1;rounded=0;entryX=1;entryY=1;entryDx=0;entryDy=0;exitX=0;exitY=0.5;exitDx=0;exitDy=0;" edge="1" parent="1" source="g06EQanjJOQpkNwreYOE-8" target="g06EQanjJOQpkNwreYOE-22">
          <mxGeometry relative="1" as="geometry">
            <mxPoint x="270" y="160" as="sourcePoint" />
            <mxPoint x="370" y="160" as="targetPoint" />
          </mxGeometry>
        </mxCell>
        <mxCell id="g06EQanjJOQpkNwreYOE-67" value="keep" style="edgeLabel;resizable=0;html=1;align=center;verticalAlign=middle;" connectable="0" vertex="1" parent="g06EQanjJOQpkNwreYOE-66">
          <mxGeometry relative="1" as="geometry" />
        </mxCell>
        <mxCell id="g06EQanjJOQpkNwreYOE-68" value="Confidence" style="rounded=1;whiteSpace=wrap;html=1;" vertex="1" parent="1">
          <mxGeometry x="20" y="30" width="120" height="60" as="geometry" />
        </mxCell>
        <mxCell id="g06EQanjJOQpkNwreYOE-69" value="" style="endArrow=classic;html=1;rounded=0;entryX=0.425;entryY=1;entryDx=0;entryDy=0;entryPerimeter=0;exitX=0.25;exitY=0;exitDx=0;exitDy=0;" edge="1" parent="1" source="g06EQanjJOQpkNwreYOE-8" target="g06EQanjJOQpkNwreYOE-68">
          <mxGeometry relative="1" as="geometry">
            <mxPoint x="270" y="160" as="sourcePoint" />
            <mxPoint x="370" y="160" as="targetPoint" />
          </mxGeometry>
        </mxCell>
        <mxCell id="g06EQanjJOQpkNwreYOE-70" value="show" style="edgeLabel;resizable=0;html=1;align=center;verticalAlign=middle;" connectable="0" vertex="1" parent="g06EQanjJOQpkNwreYOE-69">
          <mxGeometry relative="1" as="geometry" />
        </mxCell>
      </root>
    </mxGraphModel>
  </diagram>
</mxfile>
